<svg width="235" height="12" viewBox="0 0 235 12" fill="none" xmlns="http://www.w3.org/2000/svg">
<path d="M234.49 8.46C234.62 8.38 234.56 8.18 234.22 8.2L233.96 8.51L234.49 8.46Z" fill="#BC3E3E"/>
<path d="M232.25 7.68C231.84 7.81 231.36 8.06 231.6 8.38C232.02 8.09 232.1 8.23 232.6 7.89C232.94 7.89 233.18 8.04 233.11 8.15C233.24 8.08 233.63 8.26 233.83 8.07C233.596 7.92606 233.332 7.83612 233.059 7.80671C232.786 7.7773 232.509 7.80917 232.25 7.9C232.09 7.82 232.22 7.74 232.25 7.68Z" fill="#BC3E3E"/>
<path d="M178.64 3.26C178.8 3.26 178.87 3.26 178.88 3.26C178.73 3.22 178.61 3.23 178.64 3.26Z" fill="#BC3E3E"/>
<path d="M175.15 2.69H175.36C175.292 2.66713 175.218 2.66713 175.15 2.69Z" fill="#BC3E3E"/>
<path d="M199.17 4.77L198.63 4.63C198.58 4.73 198.9 4.73 199.17 4.77Z" fill="#BC3E3E"/>
<path d="M227.63 8.14C227.732 8.12846 227.833 8.10496 227.93 8.07H227.65C227.65 8.07 227.64 8.12 227.63 8.14Z" fill="#BC3E3E"/>
<path d="M208.24 5.13H208.4C208.454 5.09559 208.505 5.05535 208.55 5.01L208.24 5.13Z" fill="#BC3E3E"/>
<path d="M215.18 5.58C215.03 5.58 214.95 5.83 214.88 5.95C214.975 5.85115 215.103 5.79066 215.24 5.78C215.244 5.7084 215.223 5.63772 215.18 5.58Z" fill="#BC3E3E"/>
<path d="M203.27 4.72C203.26 4.67867 203.239 4.64071 203.21 4.61C203.211 4.63158 203.218 4.65258 203.228 4.67157C203.238 4.69055 203.253 4.70707 203.27 4.72Z" fill="#BC3E3E"/>
<path d="M1.07999 10.7H1.18999C1.19527 10.6468 1.19527 10.5932 1.18999 10.54L1.07999 10.7Z" fill="#BC3E3E"/>
<path d="M168.75 2C168.85 2 169 2 168.75 2Z" fill="#BC3E3E"/>
<path d="M109.69 0.46C110.36 0.71 108.6 0.78 109.61 1.06C109.51 1 110.52 0.62 109.69 0.46Z" fill="#BC3E3E"/>
<path d="M227.45 8.09H227.17C227.263 8.09803 227.357 8.09803 227.45 8.09Z" fill="#BC3E3E"/>
<path d="M153.93 1.44C153.971 1.49311 154.022 1.53735 154.08 1.57C154.08 1.57 154 1.5 153.93 1.44Z" fill="#BC3E3E"/>
<path d="M148.19 1.58C148.058 1.55762 147.922 1.55762 147.79 1.58C147.809 1.58686 147.831 1.58686 147.85 1.58C147.959 1.53757 148.081 1.53757 148.19 1.58Z" fill="#BC3E3E"/>
<path d="M142.22 1.38C142.253 1.4058 142.29 1.42606 142.33 1.44H142.52L142.22 1.38Z" fill="#BC3E3E"/>
<path d="M27.12 7.81C27.0022 7.76422 26.8962 7.69243 26.81 7.6C26.93 7.79 26.07 8 27.12 7.81Z" fill="#BC3E3E"/>
<path d="M227.64 8C227.621 8.03337 227.593 8.06109 227.56 8.08039C227.526 8.0997 227.489 8.10991 227.45 8.11H227.65C227.67 8 227.68 8 227.64 8Z" fill="#BC3E3E"/>
<path d="M147.86 3.79L146.86 3.71C147.191 3.75645 147.525 3.78316 147.86 3.79Z" fill="#BC3E3E"/>
<path d="M69.61 3.83H69.4C69.469 3.84695 69.541 3.84695 69.61 3.83Z" fill="#BC3E3E"/>
<path d="M144.11 3.66C143.947 3.55864 143.768 3.4875 143.58 3.45C143.538 3.46361 143.5 3.4877 143.47 3.52L144.11 3.66Z" fill="#BC3E3E"/>
<path d="M20.74 9.14C21.63 9.02 21.1 8.72 21.26 8.48C22.26 8.23 21.79 8.68 22.18 8.82C22.7041 8.57065 23.2416 8.35032 23.79 8.16C23.84 8.22 23.94 8.23 23.84 8.32C24.5 7.93 25.92 8.01 26.69 7.52C26.7357 7.53686 26.7768 7.56427 26.81 7.6C26.7449 7.53844 26.6935 7.46391 26.659 7.38123C26.6246 7.29854 26.6079 7.20955 26.61 7.12C27.01 7.05 27.33 6.78 27.51 7C27.26 7 27.26 7.12 27.15 7.21L27.56 7.05C27.98 7.34 27 7.25 27.03 7.51C27.7894 7.2066 28.5813 6.99184 29.39 6.87C29.56 7.18 27.94 7.19 28.82 7.37H27.82C28.63 7.79 27.23 7.37 27.98 7.89C29.27 7.81 29.38 7.49 30.67 7.44C30.93 7.23 30.54 7.18 30.8 6.96C32.58 6.42 32.34 7.64 33.61 7.05C33.93 6.78 34.02 6.34 34.99 6.46L34.71 6.88C35.96 6.77 35.36 6.25 36.71 6.36C36.5 6.53 35.76 6.59 35.95 6.62C36.82 6.82 36.52 6.34 37.16 6.26L37.34 6.58C38.65 6.38 40.08 5.97 41.53 5.75C41.46 5.86 41.22 5.99 41.53 6.06C42.4806 5.87583 43.443 5.75887 44.41 5.71C45.41 5.71 46.41 5.71 47.27 5.71L48 5.39C48.16 5.39 48.3 5.49 48.14 5.56C48.84 5.61 48.14 5.38 48.48 5.23C48.82 5.08 49.02 5.35 48.77 5.46C50.3112 4.97412 51.9254 4.76092 53.54 4.83L53.29 4.94C54.29 4.94 54.38 4.24 55.29 4.44L55.12 4.5C57.31 4.44 59.7 3.96 61.41 4.32C61.69 3.88 63.58 4.38 63.68 3.78C64.5559 4.03186 65.4592 4.17626 66.37 4.21C66.84 4.21 67.05 3.8 67.63 3.71V4.01L68.4 3.64L68.84 3.98L69.38 3.87C69.16 3.87 68.91 3.76 68.94 3.67C69.6515 3.51458 70.3945 3.60262 71.05 3.92L73.05 3.53C73.05 3.66 72.68 3.72 72.42 3.82C73.42 3.44 72.63 4.13 73.6 3.82C73.46 3.76 73.66 3.63 73.68 3.57C74.487 3.71285 75.3129 3.71285 76.12 3.57L76 3.77C77.5 3.77 79.15 3.54 80.82 3.48C80.22 3.41 80.34 3.03 80.82 2.98L81 3.3C81.31 3.08 80.48 3.19 81.13 2.92C81.76 2.92 81.56 3.28 81.21 3.4L82 3.25C82.05 3.35 81.88 3.41 81.83 3.53C82.14 3.32 83.16 3.81 83.6 3.44V3.54C85.28 3.47 86.04 3.33 87.4 3.26C87.4 2.98 87.96 3.02 88.4 2.79C89.5048 2.92594 90.6168 2.99607 91.73 3C92.57 2.85 91.97 2.76 92.35 2.59C92.42 2.84 93.62 2.8 93 2.99C94.2349 2.95144 95.4668 2.84461 96.69 2.67C96.49 2.56 96.26 2.52 96.38 2.43C96.71 2.43 97.14 2.53 97.09 2.65H97C99.06 2.23 101.77 3.3 103.41 2.76H103.32L105.02 2.48C105.8 2.48 104.55 2.67 105.13 2.83C106.97 2.4 108.03 2.89 109.55 2.61C110.72 3.36 113.7 2.56 115.28 3.04L115.19 2.86C115.6 2.69 115.69 2.96 115.99 3.01C115.99 2.87 115.54 2.85 115.8 2.75C119.26 2.54 122.94 3.11 126.48 3.32C127.78 3.39 127.24 2.42 128.87 2.87L128.4 3.19C131.02 2.82 133.75 3.31 136.32 3.06C136.17 3.13 136.16 3.23 135.91 3.22C136.44 3.48 137.91 3.3 137.91 3.1C138.31 3.1 137.99 3.28 138.24 3.39C138.78 3.55 139.61 3.13 139.89 3.39C139.94 3.39 139.74 3.47 139.64 3.48C139.99 3.38 141.28 3.56 140.95 3.28C141.95 3.44 142.8 3.21 143.56 3.4C144.07 3.1 145.2 3.6 145.38 3.17C145.29 3.61 147.05 3.58 147.67 3.4C147.46 3.53 148.19 3.57 147.94 3.74C148.64 3.74 149.28 3.74 149.17 3.47C150.42 4.07 151.75 3.15 152.45 3.88C154.52 3.72 156.45 3.64 158.29 3.61C158.21 4.06 156.24 3.61 156.29 4.05C157.791 3.81649 159.312 3.72608 160.83 3.78C161.28 3.86 160.56 3.96 160.41 4.03C162.18 3.93 163.8 4.25 165.41 4.09C165.41 4.09 165.23 4.17 165.07 4.19C165.38 4.19 165.79 4.3 165.76 4.09H165.46C164.98 3.77 166.71 3.53 166.78 3.38C166.22 3.94 168.31 3.61 167.44 4.31C167.65 4.31 167.91 4.2 167.87 4.06C168.17 4.06 168.26 4.2 167.95 4.34C169.06 4.28 168.68 4.05 169.68 4.1C169.68 4.2 169.46 4.23 169.35 4.34C169.949 4.1121 170.597 4.04319 171.23 4.14C171.23 4.2 171.23 4.28 171.02 4.26C172.47 4.31 173.52 3.88 175.1 4.15C174.61 4.56 175.64 4.32 175.7 4.7L176.56 4.64L176.23 4.44C176.919 4.38544 177.611 4.38544 178.3 4.44L177.73 4.56H179.14L178.35 4.37C179.12 4.22 178.35 3.89 179.29 4.06C179.09 4.06 180.04 4.06 180.42 4.35C180.844 4.21639 181.294 4.1923 181.73 4.28C181.87 4.41 181.59 4.69 181.73 4.77C182.12 4.48 183.49 4.77 183.98 4.49C183.922 4.51448 183.875 4.56003 183.849 4.61752C183.823 4.67501 183.82 4.7402 183.84 4.8L184.17 4.56C184.51 4.67 184.56 4.71 184.49 4.86C185.49 4.97 184.19 4.37 185.42 4.65C185.32 4.65 185.36 4.65 185.16 4.73C186.4 4.91 187.58 4.73 188.71 4.91C189.03 5.31 187.71 4.91 188.07 5.28C189.736 5.19661 191.404 5.19661 193.07 5.28L192.77 5.22C193.03 4.7 193.95 5.56 194.77 5.36C194.57 5.36 194.49 5.64 194.55 5.59C195.851 5.69332 197.159 5.69332 198.46 5.59L198.25 5.72C198.88 5.88 199.94 5.9 200.63 6.01C200.85 5.89 201.24 5.94 201.02 5.72C203.11 6.65 205.14 5.58 207.02 6.37C206.79 6.37 206.47 6.45 206.65 6.46H208.28C208.17 6.22 208.07 6.3 207.75 6.1C208.086 5.97917 208.447 5.94478 208.8 6C208.06 6.1 208.8 6.37 209.08 6.52C209.08 6.45 209.15 6.38 209.08 6.3C209.9 6.78 209.25 5.85 210.39 6.21L210.32 6.33C210.752 6.25125 211.191 6.21773 211.63 6.23C211.81 6.51 211.16 6.32 211.12 6.54C211.77 6.54 212.45 6.13 213.02 6.44C212.74 6.49 212.34 6.44 212.02 6.52C212.375 6.74955 212.787 6.8775 213.21 6.89L214.31 7.11L214.03 7.01C214.9 6.37 215.71 7.01 216.85 6.62C215.74 6.98 216.65 6.86 216.55 7.16C216.83 7.26 217.25 7.39 217.12 7.46C217.66 7.26 217.98 7.72 218.74 7.41C218.74 7.51 219.3 7.46 219.16 7.7C219.85 7.7 219.01 7.52 219.08 7.4C220.15 7.14 221.51 7.99 223.08 7.64C224.39 7.55 224.66 7.24 225.87 7.17C226.27 7.35 225.52 7.5 225.52 7.5C226.09 7.67154 226.691 7.71591 227.28 7.63C227.15 7.71 227.28 7.79 227.46 7.91C227.95 7.91 227.81 7.59 228.46 7.78C228.307 7.9295 228.127 8.04831 227.93 8.13C228.52 8.13 229.11 7.95 229.73 7.9C229.87 8.09 229.34 8.13 229.12 8.23C229.81 8.23 230.89 8.23 231.12 7.95L230.7 7.83C230.94 7.83 230.81 8.07 230.62 8.1C230.02 8.27 229.79 7.95 229.76 7.85H230.2C229.8 7.25 228.46 7.85 227.59 7.72L227.98 7.33L227.07 7.61C226.89 7.49 226.78 7.25 227.21 7.22C226.6 6.96 226.65 7.32 226.13 7.05C226.07 7.05 226.13 7.05 226.13 6.98L225.51 7.06C225.64 6.98 225.43 6.76 225.8 6.85C224.73 6.53 224.02 7.03 223.63 6.68H223.72C222.2 6.68 223.55 6.97 222.39 7.24L221.68 6.43L221.51 6.73C221.36 6.73 221.05 6.66 221.12 6.54C220.52 6.71 221.21 6.68 220.85 6.85C220.12 6.52 218.77 6.85 218.64 6.33C218.35 6.54 219.34 6.56 218.53 6.67C218.34 6.13 217.59 6.67 216.93 6.4C217.16 6.15 217.8 6.34 217.13 6.05C216.68 6.47 215.8 5.85 215.21 5.89C215.16 6.25 213.94 5.95 212.96 6C212.068 5.77291 211.163 5.59927 210.25 5.48V5.42C210.05 5.77 209.12 5.63 208.44 5.66C208.44 5.44 208.61 5.37 208.98 5.3L208.34 5.25C208.101 5.37904 207.831 5.43798 207.56 5.42L207.8 5C206.87 5.10711 205.93 5.10711 205 5C204.92 5.25 205.82 5.77 204.65 5.86C204.65 5.72 204.59 5.48 204.9 5.45C204.716 5.49235 204.524 5.49235 204.34 5.45L204.82 5.25C204.33 5.11 204.54 5.42 204.15 5.37C204.15 5.18 203.86 5.21 203.93 5.06C204 4.91 204.27 5.17 204.43 5.06C204.023 5.01907 203.631 4.88935 203.28 4.68C203.28 4.79 203.28 4.94 202.93 4.95C202.08 4.95 202.66 4.69 202.17 4.55C201.95 4.68 201.42 4.55 201.38 4.79C201.14 4.79 201.1 4.63 201.01 4.55C200.56 4.65 198.95 4.44 199.43 4.79H199.54H199.46C198 4.98 196.46 4.42 195.04 4.45V4.35C194.195 4.31832 193.349 4.35176 192.51 4.45C192.26 4.45 191.93 4.23 192.04 4.12C191.484 4.21473 190.913 4.18398 190.37 4.03C191.04 3.9 190.15 3.87 191.05 3.95C190.406 3.7293 189.712 3.69807 189.05 3.86C189.37 3.62 188.43 3.5 188.05 3.55L188.63 3.77C188.212 3.7667 187.794 3.73664 187.38 3.68L187.62 3.36C185.91 2.85 184.44 3.86 183.16 3.1C182.69 3.3 184.1 3.32 183.67 3.57C183.047 3.42564 182.435 3.23512 181.84 3C180.75 2.75 180.79 3.42 179.65 3.22C179.79 3.35 179.91 3.68 179.05 3.73C178.19 3.78 178.05 3.18 178.6 3.11C178.8 3.11 178.89 3.11 178.88 3.2C179.14 3.2 179.48 3.14 179.17 2.99L179.06 3.1C178.67 2.96 177.57 2.9 177.84 2.73C177.23 2.8 177.57 2.9 178.01 2.99C177.01 2.76 176.41 2.88 175.36 2.71C175.52 2.79 175.67 2.94 175.5 2.92C173.96 2.7 174.81 3.11 173.76 3.11C173.17 2.9 173.99 2.69 172.93 2.78C172.29 2.63 172.81 2.46 173.07 2.38C172.277 2.42757 171.482 2.31885 170.73 2.06L171.25 1.99C170.981 2.01972 170.709 2.01972 170.44 1.99L170.71 2.25C170.42 2.19 170.17 2.17 170.18 2.08C169.86 2.22 170.39 2.48 169.77 2.66C169.38 2.52 168.55 2.73 168.43 2.41C169.68 2.58 168.31 2.08 169.37 2.09C169.121 2.12682 168.869 2.12682 168.62 2.09C168.62 2.09 168.62 2.03 168.75 2.02C167.57 1.67 168.18 2.34 166.94 2.27C167.11 2.1 166.67 1.92 166.47 1.94C166.97 1.94 166.69 2.25 166.23 2.36C165.44 2.18 165.36 2.42 164.94 2.36L165.42 2.45C165.25 2.62 164.85 2.58 164.29 2.6C164.29 2.46 164.8 2.53 164.61 2.46C163.98 2.74 163.23 2.07 162.37 2.23C161.98 2.09 162.37 1.89 162 1.79C161 1.97 161 1.5 159.95 1.65C160.23 1.9 160.29 1.84 159.56 2.04L161.23 1.95L160.15 2.25C160.65 2.25 161.21 2.14 161.51 2.2C161 2.37 161.05 2.31 161.28 2.52C160.61 2.13 159.91 2.67 159.13 2.39L159.18 1.8C158 1.49 157.05 2.02 155.51 1.8L156 1.92C155.79 2.15 155.05 1.92 154.54 1.99C154.6 1.79 154.29 1.71 154.08 1.58C154.08 1.72 152.95 1.51 152.79 1.9L152.11 1.61C150.86 1.45 150.66 2.11 149.46 1.99C149.83 1.79 149.29 1.63 150.1 1.51C149.7 1.51 149.34 1.44 149.33 1.58C149.1 1.44 148.21 1.8 147.85 1.58C147.67 1.66 147.61 1.87 147.16 1.83V1.73C147.16 1.73 146.45 1.83 146.83 2.07C145.62 1.41 143.38 2.01 142.32 1.44C141.44 1.44 140.39 1.51 139.59 1.5C139.64 1.44 139.59 1.4 139.75 1.43C138.65 1.21 139.05 1.97 137.81 1.73C137.19 1.39 138.48 1.58 138.09 1.45C137.93 0.79 136.58 1.45 135.75 1.08H135.95C135.32 0.84 134.38 1.28 133.33 1.2C133.33 1.2 133.39 1.14 133.33 1.1C132.323 1.38195 131.285 1.53649 130.24 1.56C130.56 1.31 130.7 1.44 130.51 1.17C130.06 1.17 130.63 1.59 129.73 1.65C129.44 1.5 128.79 1.37 128.73 1.1H129.58C129.15 0.74 128.48 1.1 128.03 1.03L128.09 0.87C126.79 0.87 126.76 1.29 125.36 1.24L125.5 1.36C124.73 1.74 124.86 1.13 124.09 1.41L123.87 1.01C122.981 1.19156 122.083 1.3284 121.18 1.42C121.906 1.14487 122.656 0.937324 123.42 0.8C122.747 0.748728 122.071 0.812989 121.42 0.99C121.634 0.92611 121.858 0.905709 122.08 0.93C121.314 1.25696 120.482 1.40077 119.65 1.35C119.84 0.59 117.05 1.1 116.33 0.52C114.56 0.8 112.82 0.4 110.76 0.44C111.49 1.04 110.16 0.44 110.28 1.07C109.8 1.07 109.62 1.07 109.58 1.07L108.15 0.69C107.81 0.52 108.61 0.56 108.57 0.42C107.51 0.42 108.12 0.16 107.43 0C107.57 0.22 107.06 0.31 106.43 0.23L107.28 0.51C105.84 0.84 106 0 104.56 0.32L105 0.13C104.25 0.24 102.2 0.13 101.46 0.64C101.33 0.57 101.15 0.4 101.46 0.35C99.64 0.35 97.46 0.95 96.01 0.67L96.15 0.52C95.81 0.52 95.56 0.81 95.15 0.67C95.15 0.61 95.29 0.52 95.15 0.51C94.718 0.666687 94.2589 0.734707 93.8 0.71L94.19 0.53C92.41 0.37 91.48 1 90 1.12C90 0.68 88.6 0.56 87.9 0.51V0.45C86.089 0.577612 84.2884 0.824817 82.51 1.19C81.31 0.76 78.51 1.19 76.57 0.95C76.87 1.02 76.57 1.3 76.2 1.35C75.83 1.4 75 1.71 75.05 1.3H75.21C74.85 0.92 73.94 1.05 73.21 1.08L73.12 1.62C71.2 0.96 68.22 2.2 67.12 1.57C66.68 1.73 66.12 1.77 65.68 1.93V1.64C64.5343 1.62886 63.389 1.68563 62.25 1.81L62.55 1.59C61.68 1.59 61.55 2.47 60.7 2.59L60.43 2.18C58.8968 2.08754 57.3583 2.2121 55.86 2.55C55.86 2.49 55.92 2.36 56.16 2.32C55.45 2.32 53.37 2.32 53.68 2.83C53.68 2.46 52.1 2.93 51.3 3.17L51.4 2.88C50.9318 3.25775 50.3671 3.49678 49.77 3.57C49.53 3.57 49.55 3.37 49.86 3.41C49.08 3.33 49.28 3.73 48.34 3.66L48.67 3.45C48.2587 3.42843 47.8547 3.5643 47.54 3.83C47.06 3.99 46.04 3.89 45.9 3.65C45.7839 3.76956 45.6434 3.86271 45.4881 3.9231C45.3328 3.9835 45.1663 4.00973 45 4C44.93 3.91 45.09 3.84 45.18 3.8C43.84 3.72 43.26 4.33 42.33 4.15C42.3191 4.10767 42.2946 4.07008 42.2603 4.04299C42.2259 4.0159 42.1837 4.0008 42.14 4C43.14 3.88 44.02 3.8 43.94 3.83C43.94 3.58 43.07 3.63 43.71 3.2C42.8974 3.62687 42.0122 3.89819 41.1 4C41.0604 3.96957 41.0265 3.93232 41 3.89H41.09C40.9111 3.88049 40.7326 3.91482 40.57 3.99C40.3407 3.96497 40.1093 3.96497 39.88 3.99C39.76 3.79 38.88 3.99 38.48 3.99C38.55 4.26 38 4.28 38.54 4.45C38.47 4.45 38.61 4.45 38.89 4.37H39.07L40.07 4.23C39.9068 4.34271 39.723 4.42195 39.529 4.46314C39.3351 4.50434 39.1349 4.50667 38.94 4.47C38.7687 4.64898 38.5885 4.8192 38.4 4.98C37.79 4.66 36.66 4.57 36.47 4.35C35.21 4.65 33.47 4.79 32.72 5.41C32.37 5.52 32.29 5.31 32.14 5.24C32.3309 5.17858 32.5151 5.09818 32.69 5C31.98 5.22 30.54 5.3 30.41 5.69C29.47 5.63 30.88 5.28 29.63 5.5L29.78 5.36C27.23 5.13 25.89 6.87 23.05 6.51C23.24 6.51 23.34 6.51 23.39 6.59C20.22 6.73 16.99 7.77 13.84 7.78C13.3071 7.79679 12.7958 7.99426 12.39 8.34L12.15 8.08L11.3 8.58C10.05 9.06 8.93999 8.24 7.37999 9L7.62999 9.16C7.03999 9.23 5.78999 9.6 5.84999 9.36C5.8087 9.42584 5.74821 9.47743 5.67669 9.50783C5.60517 9.53823 5.52604 9.54597 5.44999 9.53V9.38L3.99999 9.93C2.85999 10.01 4.05999 9.28 2.41999 9.53C1.82999 9.7 0.779986 10.29 1.02999 10.35C1.27999 10.41 1.66999 10.35 1.71999 10.49L1.17999 10.67C1.17999 11.14 0.829986 11.67 2.24999 11.77L3.13999 11.32L3.48999 11.49L2.68999 11.65C2.86774 11.6821 3.05053 11.6727 3.22402 11.6224C3.39752 11.5721 3.557 11.4823 3.68999 11.36C3.81161 11.4688 3.96699 11.5323 4.12999 11.54L4.97999 10.94C5.12999 11.1 4.62999 11.36 5.26999 11.36C5.66999 11.08 4.77999 11.03 5.47999 10.77C5.96999 10.9 5.85999 11.09 6.35999 10.82C6.45999 10.92 6.35999 11.02 6.15999 11.11C6.60999 10.88 7.39999 10.83 7.59999 10.54C8.10999 10.72 9.17999 10.2 9.20999 10.64C9.57169 10.3758 9.97825 10.1793 10.41 10.06C9.70999 10.72 12.04 9.81 11.93 10.41C12.44 9.84 14.01 9.83 15.01 9.41C14.9464 9.48377 14.8569 9.53031 14.76 9.54C15.1741 9.50102 15.5916 9.52123 16 9.6C16 9.21 16.92 8.99 17.38 8.68C18.15 8.95 17.01 9.2 17.29 9.52C17.21 9.21 18.49 9.03 18.21 8.81C18.79 8.96 18.7 8.81 19.03 9.13C19.03 8.63 19.53 8.98 19.95 8.61C20.78 8.74 20.22 9.04 21.07 8.77C21.49 8.86 20.74 9.14 20.74 9.14ZM43.26 5.46C43.05 5.46 42.78 5.46 42.5 5.54C42.43 5.45 42.5 5.34 42.66 5.32C42.57 5.4 43 5.41 43.26 5.46ZM39.33 3.94C39.61 3.87 39.71 3.94 39.75 3.94L39.27 4.03C39.2855 3.99722 39.3057 3.9669 39.33 3.94Z" fill="#BC3E3E"/>
<path d="M38.87 4.37H38.76H38.93L39.02 4.27L38.87 4.37Z" fill="#BC3E3E"/>
<path d="M199.42 4.83C199.42 4.83 199.48 4.83 199.49 4.83H199.42Z" fill="#BC3E3E"/>
<path d="M67.66 4.08L67.65 4.01L67.5 4.08H67.66Z" fill="#BC3E3E"/>
<path d="M209.08 6.47C209.112 6.51133 209.158 6.5397 209.21 6.55C209.21 6.55 209.15 6.51 209.08 6.47Z" fill="#BC3E3E"/>
<path d="M216.51 7.21C216.542 7.17935 216.566 7.14166 216.58 7.1L216.51 7.21Z" fill="#BC3E3E"/>
<path d="M165.07 4.24H165C164.65 4.29 164.85 4.28 165.07 4.24Z" fill="#BC3E3E"/>
<path d="M180.42 4.44L179.92 4.55C180.19 4.58 180.4 4.6 180.42 4.44Z" fill="#BC3E3E"/>
<path d="M147.96 3.8V3.79H147.86L147.96 3.8Z" fill="#BC3E3E"/>
<path d="M179.2 4.5C179.438 4.54356 179.682 4.54356 179.92 4.5C179.681 4.46526 179.439 4.46526 179.2 4.5Z" fill="#BC3E3E"/>
<path d="M230.69 8.36H230.86C230.78 8.33 230.71 8.33 230.69 8.36Z" fill="#BC3E3E"/>
<path d="M231.23 8.29L230.86 8.34C231 8.35 231.14 8.37 231.23 8.29Z" fill="#BC3E3E"/>
<path d="M226.24 7.93L226.18 8.03C226.197 8.01862 226.211 8.0038 226.221 7.98654C226.231 7.96929 226.238 7.95 226.24 7.93Z" fill="#BC3E3E"/>
<path d="M224.94 7.86C225.327 7.99563 225.731 8.07642 226.14 8.1V8.03C226 8.16 225.24 7.71 224.94 7.86Z" fill="#BC3E3E"/>
<path d="M219.6 6.2L220.69 6.36C220.5 6.24 220.26 6.07 220.76 6.09C219.41 5.66 221 6.35 219.6 6.2Z" fill="#BC3E3E"/>
<path d="M216.23 5.8C216.82 5.8 216.23 5.64 216.23 5.58C215.89 5.65 215.8 5.67 216.23 5.8Z" fill="#BC3E3E"/>
<path d="M191.8 4.09L191.88 3.84C191.42 3.84 191.87 3.93 191.8 4.09Z" fill="#BC3E3E"/>
<path d="M187.04 5.11L187.47 5.3L187.7 5.08L187.04 5.11Z" fill="#BC3E3E"/>
<path d="M184.4 3.12L184.6 3.1L183.84 3.14L184.4 3.12Z" fill="#BC3E3E"/>
<path d="M143.29 1.17L143.42 1.49C143.73 1.44 143.8 1.09 143.29 1.17Z" fill="#BC3E3E"/>
<path d="M125.52 1C125.375 0.902568 125.208 0.840907 125.034 0.820052C124.861 0.799197 124.684 0.819739 124.52 0.88C124.85 0.943165 125.184 0.983262 125.52 1Z" fill="#BC3E3E"/>
<path d="M72.22 1.27L72.57 1.15L71.9 1.28L72.22 1.27Z" fill="#BC3E3E"/>
</svg>
