<svg width="1440" height="1153" viewBox="0 0 1440 1153" fill="none" xmlns="http://www.w3.org/2000/svg">
<path d="M636.145 209.752C597.877 293.268 556.262 323.507 521.639 333.45C456.936 352.033 413.806 300.532 351.23 320.901C294.25 339.443 284.858 399.275 246.03 444.004C199.993 497.043 105.997 540.14 -107.344 481.641M690.948 194.237C649.293 300.892 601.531 338.365 561.581 350.289C488.711 371.95 439.311 310.67 367.968 336.036C304.862 358.21 296.425 423.81 248.448 475.895C196.557 532.239 99.5847 575.366 -107.354 521.106M745.759 178.722C700.726 308.526 646.818 353.223 601.541 367.137C520.504 391.877 464.908 321.044 384.733 351.171C315.556 377.173 308.108 448.426 250.884 507.797C193.265 567.578 93.1817 610.603 -107.337 560.58M800.571 163.208C752.159 316.16 692.096 368.081 641.5 383.976C552.306 411.804 490.448 331.234 401.488 366.296C326.204 395.971 319.846 473.104 253.32 539.678C186.795 606.253 86.7871 645.82 -107.32 600.024M855.383 147.693C803.584 323.794 737.374 382.95 681.451 400.814C584.09 431.721 515.98 341.403 418.244 381.431C336.852 414.759 331.628 497.854 255.756 571.57C186.906 638.462 80.3837 681.046 -107.304 639.488M910.185 132.178C855.008 331.429 782.643 397.808 721.402 417.653C615.883 451.638 541.503 351.561 434.99 396.556C347.482 433.527 343.447 522.635 258.183 603.451C183.768 673.987 73.9802 716.262 -107.305 678.943M964.997 116.663C906.442 339.063 827.921 412.666 761.362 434.492C647.676 471.555 567.026 361.699 451.755 411.691C358.13 452.295 355.302 547.477 260.619 635.353C180.665 709.551 67.577 751.499 -107.288 718.417M1019.81 101.148C957.867 346.697 873.207 427.524 801.313 451.34C679.46 491.492 592.539 371.837 468.501 426.826C368.751 471.052 367.175 572.35 263.047 667.245C177.572 745.137 61.1647 786.725 -107.28 757.881M1074.62 85.6335C1009.3 354.321 918.485 442.382 841.273 468.179C711.262 511.409 618.061 381.955 485.266 441.962C379.39 489.799 379.075 597.254 265.491 699.136C174.505 780.753 54.7791 821.952 -107.263 797.335M1129.42 70.1186C1060.72 361.955 963.754 457.24 881.224 485.017C743.046 531.326 643.456 391.744 502.012 457.087C389.919 508.279 390.966 622.178 267.91 731.028C171.421 816.37 48.358 857.178 -107.264 836.8M1184.23 54.6039C1112.15 369.59 1009.03 472.099 921.175 501.856C774.83 551.253 668.969 401.871 518.768 472.222C400.549 527.047 402.893 647.133 270.346 762.92C168.364 852.007 41.9636 892.405 -107.247 876.264M1239.05 39.0891C1163.58 377.224 1054.31 486.957 961.135 518.694C806.632 571.17 694.491 411.999 535.523 487.347C411.178 545.794 414.821 672.098 272.781 794.801C165.306 887.644 35.56 927.621 -107.24 915.718M1293.85 23.5743C1215.01 384.858 1099.59 501.815 1001.09 535.543C838.416 591.097 720.005 422.147 552.279 502.492C421.808 564.572 426.757 697.094 275.218 826.703C162.258 923.311 29.1655 962.858 -107.223 955.182M1348.66 8.05937C1266.43 392.493 1144.87 516.673 1041.04 552.382C870.209 611.014 745.519 432.275 569.025 517.617C432.429 583.319 438.703 722.091 277.636 858.594C159.201 958.979 22.7446 998.084 -107.224 994.647M1403.47 -7.45545C1317.87 400.127 1190.14 531.531 1081 569.22C902.002 630.941 771.042 442.413 585.79 532.752C443.077 602.087 450.666 747.107 280.081 890.486C156.162 994.647 16.3589 1033.31 -107.198 1034.11M1458.28 -22.9702C1369.3 407.751 1235.42 546.399 1120.96 586.059C933.795 650.858 796.564 452.541 602.545 547.877C453.707 620.834 462.82 772.442 282.516 922.367C153.267 1030.54 9.95529 1068.53 -107.19 1073.57M1513.09 -38.485C1420.71 415.385 1280.69 561.258 1160.9 602.897C965.579 670.775 822.069 462.669 619.292 563.012C464.328 639.601 474.684 797.325 284.935 954.269C150.138 1066.12 3.53417 1103.76 -107.191 1113.04M1567.9 -54C1472.15 423.02 1325.98 576.116 1200.86 619.746C997.372 690.702 847.582 472.817 636.048 578.147C474.958 658.369 486.548 822.208 287.371 986.161C147.036 1101.69 -2.86015 1138.99 -107.175 1152.49" stroke="url(#paint0_linear_395_1418)" stroke-miterlimit="10"/>
<defs>
<linearGradient id="paint0_linear_395_1418" x1="828" y1="163" x2="157.555" y2="681.817" gradientUnits="userSpaceOnUse">
<stop stop-color="#242B36" stop-opacity="0"/>
<stop offset="0.5" stop-color="#242B36"/>
<stop offset="1" stop-color="#242B36" stop-opacity="0"/>
</linearGradient>
</defs>
</svg>
