<svg width="280" height="292" viewBox="0 0 280 292" fill="none" xmlns="http://www.w3.org/2000/svg">
<path d="M208 32.6667C208 28.6296 210.427 24.9886 214.154 23.4359L266.154 1.76922C272.741 -0.975313 280 3.86421 280 11V259.333C280 263.37 277.573 267.011 273.846 268.564L221.846 290.231C215.259 292.975 208 288.136 208 281V32.6667Z" fill="#BC3E3E"/>
<path d="M0 11C0 3.86421 7.25928 -0.975313 13.8462 1.76922L65.8462 23.4359C69.5726 24.9886 72 28.6296 72 32.6667V281C72 288.136 64.7407 292.975 58.1538 290.231L6.15385 268.564C2.42738 267.011 0 263.37 0 259.333V11Z" fill="#BC3E3E"/>
<path d="M104 186C104 178.864 111.259 174.025 117.846 176.769L169.846 198.436C173.573 199.989 176 203.63 176 207.667V281C176 288.136 168.741 292.975 162.154 290.231L110.154 268.564C106.427 267.011 104 263.37 104 259.333V186Z" fill="#BC3E3E"/>
</svg>
