<svg width="64" height="64" viewBox="0 0 64 64" fill="none" xmlns="http://www.w3.org/2000/svg">
<path fill-rule="evenodd" clip-rule="evenodd" d="M7.61711 17.9226L31.9999 3.84515L56.3827 17.9226V46.0774L31.9999 60.1548L7.61711 46.0774V17.9226ZM31.9999 0L59.7127 16V48L31.9999 64L4.28711 48V16L31.9999 0ZM38.8809 22.1119L38.8571 22.0982V22.1257V29.961V29.9886V30.0161V37.8239L38.8332 37.8377L31.9999 33.8925L25.1666 37.8377L25.1428 37.8239V30.0161V29.9886V29.961V22.1257V22.0982L25.1189 22.1119L18.2856 18.1667V26.0296V26.0571V26.0847V33.8925V33.92V33.9475V41.7829V41.8104L18.3095 41.7966L25.1428 45.7418L31.9761 41.7966L31.9999 41.8104L32.0238 41.7966L38.8571 45.7418L45.6904 41.7966L45.7142 41.8104V41.7829V33.9475V33.92V33.8925V26.0847V26.0571V26.0296V18.1667L38.8809 22.1119Z" fill="#495057"/>
</svg>
