<svg width="259" height="55" viewBox="0 0 259 55" fill="none" xmlns="http://www.w3.org/2000/svg">
<path d="M0.872 16.56H8.504L12.32 32.256L15.704 46.44H15.92L19.808 32.256L24.344 16.56H31.4L36.008 32.256L39.968 46.44H40.184L43.496 32.256L47.384 16.56H54.656L44.576 54H35.72L30.824 36.936L27.8 26.424H27.656L24.704 36.936L19.736 54H11.096L0.872 16.56ZM66.0916 9.864C64.4596 9.864 63.2596 9.48 62.4916 8.712C61.7716 7.944 61.4116 6.96 61.4116 5.76V4.536C61.4116 3.336 61.7716 2.352 62.4916 1.584C63.2596 0.815998 64.4596 0.431999 66.0916 0.431999C67.7236 0.431999 68.8996 0.815998 69.6196 1.584C70.3396 2.352 70.6996 3.336 70.6996 4.536V5.76C70.6996 6.96 70.3396 7.944 69.6196 8.712C68.8996 9.48 67.7236 9.864 66.0916 9.864ZM62.1316 16.56H69.9796V54H62.1316V16.56ZM89.1783 54C86.4903 54 84.4743 53.328 83.1303 51.984C81.8343 50.592 81.1863 48.672 81.1863 46.224V0.719999H89.0343V47.592H94.2183V54H89.1783ZM105.678 9.864C104.046 9.864 102.846 9.48 102.078 8.712C101.358 7.944 100.998 6.96 100.998 5.76V4.536C100.998 3.336 101.358 2.352 102.078 1.584C102.846 0.815998 104.046 0.431999 105.678 0.431999C107.31 0.431999 108.486 0.815998 109.206 1.584C109.926 2.352 110.286 3.336 110.286 4.536V5.76C110.286 6.96 109.926 7.944 109.206 8.712C108.486 9.48 107.31 9.864 105.678 9.864ZM101.718 16.56H109.566V54H101.718V16.56ZM148.204 54C146.14 54 144.556 53.424 143.452 52.272C142.348 51.072 141.676 49.56 141.436 47.736H141.076C140.356 50.088 139.036 51.864 137.116 53.064C135.196 54.264 132.868 54.864 130.132 54.864C126.244 54.864 123.244 53.856 121.132 51.84C119.068 49.824 118.036 47.112 118.036 43.704C118.036 39.96 119.38 37.152 122.068 35.28C124.804 33.408 128.788 32.472 134.02 32.472H140.788V29.304C140.788 27 140.164 25.224 138.916 23.976C137.668 22.728 135.724 22.104 133.084 22.104C130.876 22.104 129.076 22.584 127.684 23.544C126.292 24.504 125.116 25.728 124.156 27.216L119.476 22.968C120.724 20.856 122.476 19.128 124.732 17.784C126.988 16.392 129.94 15.696 133.588 15.696C138.436 15.696 142.156 16.824 144.748 19.08C147.34 21.336 148.636 24.576 148.636 28.8V47.592H152.596V54H148.204ZM132.364 48.888C134.812 48.888 136.828 48.36 138.412 47.304C139.996 46.2 140.788 44.736 140.788 42.912V37.512H134.164C128.74 37.512 126.028 39.192 126.028 42.552V43.848C126.028 45.528 126.58 46.8 127.684 47.664C128.836 48.48 130.396 48.888 132.364 48.888ZM160.288 54V16.56H168.136V22.752H168.496C169.312 20.736 170.536 19.056 172.168 17.712C173.848 16.368 176.128 15.696 179.008 15.696C182.848 15.696 185.824 16.968 187.936 19.512C190.096 22.008 191.176 25.584 191.176 30.24V54H183.328V31.248C183.328 25.392 180.976 22.464 176.272 22.464C175.264 22.464 174.256 22.608 173.248 22.896C172.288 23.136 171.424 23.52 170.656 24.048C169.888 24.576 169.264 25.248 168.784 26.064C168.352 26.88 168.136 27.84 168.136 28.944V54H160.288ZM218.679 51.248H218.519C218.156 52.2293 217.559 52.9973 216.727 53.552C215.916 54.1067 214.956 54.384 213.847 54.384C211.735 54.384 210.103 53.6267 208.951 52.112C207.799 50.576 207.223 48.432 207.223 45.68C207.223 42.928 207.799 40.7947 208.951 39.28C210.103 37.744 211.735 36.976 213.847 36.976C214.956 36.976 215.916 37.2533 216.727 37.808C217.559 38.3413 218.156 39.1093 218.519 40.112H218.679V30.32H222.167V54H218.679V51.248ZM214.903 51.376C215.969 51.376 216.865 51.12 217.591 50.608C218.316 50.0747 218.679 49.3813 218.679 48.528V42.832C218.679 41.9787 218.316 41.296 217.591 40.784C216.865 40.2507 215.969 39.984 214.903 39.984C213.687 39.984 212.716 40.3787 211.991 41.168C211.265 41.936 210.903 42.96 210.903 44.24V47.12C210.903 48.4 211.265 49.4347 211.991 50.224C212.716 50.992 213.687 51.376 214.903 51.376ZM233.68 54.384C232.486 54.384 231.419 54.1813 230.48 53.776C229.542 53.3707 228.742 52.7947 228.08 52.048C227.419 51.28 226.907 50.3627 226.544 49.296C226.203 48.208 226.032 47.0027 226.032 45.68C226.032 44.3573 226.203 43.1627 226.544 42.096C226.907 41.008 227.419 40.0907 228.08 39.344C228.742 38.576 229.542 37.9893 230.48 37.584C231.419 37.1787 232.486 36.976 233.68 36.976C234.896 36.976 235.963 37.1893 236.88 37.616C237.819 38.0427 238.598 38.64 239.216 39.408C239.835 40.1547 240.294 41.0293 240.592 42.032C240.912 43.0347 241.072 44.112 241.072 45.264V46.576H229.648V47.12C229.648 48.4 230.022 49.456 230.768 50.288C231.536 51.0987 232.624 51.504 234.032 51.504C235.056 51.504 235.92 51.28 236.624 50.832C237.328 50.384 237.926 49.776 238.416 49.008L240.464 51.024C239.846 52.048 238.95 52.8693 237.776 53.488C236.603 54.0853 235.238 54.384 233.68 54.384ZM233.68 39.696C233.083 39.696 232.528 39.8027 232.016 40.016C231.526 40.2293 231.099 40.528 230.736 40.912C230.395 41.296 230.128 41.7547 229.936 42.288C229.744 42.8213 229.648 43.408 229.648 44.048V44.272H237.392V43.952C237.392 42.672 237.062 41.648 236.4 40.88C235.739 40.0907 234.832 39.696 233.68 39.696ZM248.268 54L242.604 37.36H246.06L248.588 44.944L250.284 50.768H250.476L252.172 44.944L254.764 37.36H258.092L252.364 54H248.268Z" fill="white"/>
<path d="M201.078 54.384C200.288 54.384 199.702 54.1813 199.318 53.776C198.934 53.3493 198.742 52.8267 198.742 52.208V51.728C198.742 51.1093 198.934 50.5973 199.318 50.192C199.702 49.7653 200.288 49.552 201.078 49.552C201.867 49.552 202.454 49.7653 202.838 50.192C203.222 50.5973 203.414 51.1093 203.414 51.728V52.208C203.414 52.8267 203.222 53.3493 202.838 53.776C202.454 54.1813 201.867 54.384 201.078 54.384Z" fill="#3271D0"/>
</svg>
