<svg width="48" height="48" viewBox="0 0 48 48" fill="none" xmlns="http://www.w3.org/2000/svg">
<g clip-path="url(#clip0_181_68)">
<path d="M4 24C5.06087 24 6.07828 23.5786 6.82843 22.8284C7.57857 22.0783 8 21.0609 8 20V12C8 10.9391 8.42143 9.92172 9.17157 9.17157C9.92172 8.42143 10.9391 8 12 8H36C37.0609 8 38.0783 8.42143 38.8284 9.17157C39.5786 9.92172 40 10.9391 40 12V20C40 21.0609 40.4214 22.0783 41.1716 22.8284C41.9217 23.5786 42.9391 24 44 24" stroke="#FFFFFF" stroke-width="2" stroke-linecap="round" stroke-linejoin="round"/>
<path d="M4 24C5.06087 24 6.07828 24.4214 6.82843 25.1716C7.57857 25.9217 8 26.9391 8 28V36C8 37.0609 8.42143 38.0783 9.17157 38.8284C9.92172 39.5786 10.9391 40 12 40H36C37.0609 40 38.0783 39.5786 38.8284 38.8284C39.5786 38.0783 40 37.0609 40 36V28C40 26.9391 40.4214 25.9217 41.1716 25.1716C41.9217 24.4214 42.9391 24 44 24" stroke="#FFFFFF" stroke-width="2" stroke-linecap="round" stroke-linejoin="round"/>
<path d="M18 32V16H25C26.0609 16 27.0783 16.4214 27.8284 17.1716C28.5786 17.9217 29 18.9391 29 20C29 21.0609 28.5786 22.0783 27.8284 22.8284C27.0783 23.5786 26.0609 24 25 24H18H26C27.0609 24 28.0783 24.4214 28.8284 25.1716C29.5786 25.9217 30 26.9391 30 28C30 29.0609 29.5786 30.0783 28.8284 30.8284C28.0783 31.5786 27.0609 32 26 32H18Z" stroke="#FFFFFF" stroke-width="2" stroke-linecap="round" stroke-linejoin="round"/>
</g>
<defs>
<clipPath id="clip0_181_68">
<rect width="48" height="48" fill="#FFFFFF"/>
</clipPath>
</defs>
</svg>
