<svg width="48" height="48" viewBox="0 0 48 48" fill="none" xmlns="http://www.w3.org/2000/svg">
<g clip-path="url(#clip0_181_82)">
<path d="M30 30C33.3137 30 36 27.3137 36 24C36 20.6863 33.3137 18 30 18C26.6863 18 24 20.6863 24 24C24 27.3137 26.6863 30 30 30Z" stroke="black" stroke-width="2" stroke-linecap="round" stroke-linejoin="round"/>
<path d="M30 6H18C14.6863 6 12 8.68629 12 12C12 15.3137 14.6863 18 18 18H30C33.3137 18 36 15.3137 36 12C36 8.68629 33.3137 6 30 6Z" stroke="black" stroke-width="2" stroke-linecap="round" stroke-linejoin="round"/>
<path d="M18 18C16.4087 18 14.8826 18.6321 13.7574 19.7574C12.6321 20.8826 12 22.4087 12 24C12 25.5913 12.6321 27.1174 13.7574 28.2426C14.8826 29.3679 16.4087 30 18 30H24M18 30C16.8133 30 15.6533 30.3519 14.6666 31.0112C13.6799 31.6705 12.9109 32.6075 12.4567 33.7039C12.0026 34.8003 11.8838 36.0067 12.1153 37.1705C12.3468 38.3344 12.9182 39.4035 13.7574 40.2426C14.5965 41.0818 15.6656 41.6532 16.8295 41.8847C17.9933 42.1162 19.1997 41.9974 20.2961 41.5433C21.3925 41.0892 22.3295 40.3201 22.9888 39.3334C23.6481 38.3467 24 37.1867 24 36V6" stroke="black" stroke-width="2" stroke-linecap="round" stroke-linejoin="round"/>
</g>
<defs>
<clipPath id="clip0_181_82">
<rect width="48" height="48" fill="white"/>
</clipPath>
</defs>
</svg>
