<svg width="48" height="48" viewBox="0 0 48 48" fill="none" xmlns="http://www.w3.org/2000/svg">
<g clip-path="url(#clip0_184_286)">
<path d="M18 38C9.4 40.8 9.4 33 6 32M30 42V35C30 33 30.2 32.2 29 31C34.6 30.4 40 28.2 40 19C39.9976 16.6099 39.0651 14.3146 37.4 12.6C38.1809 10.5239 38.109 8.22326 37.2 6.2C37.2 6.2 35 5.6 30.2 8.8C26.1345 7.74118 21.8655 7.74118 17.8 8.8C13 5.6 10.8 6.2 10.8 6.2C9.89096 8.22326 9.81907 10.5239 10.6 12.6C8.93491 14.3146 8.00244 16.6099 8 19C8 28.2 13.4 30.4 19 31C17.8 32.2 17.8 33.4 18 35V42" stroke="#FFFFFF" stroke-width="2" stroke-linecap="round" stroke-linejoin="round"/>
</g>
<defs>
<clipPath id="clip0_184_286">
<rect width="48" height="48" fill="#FFFFFF"/>
</clipPath>
</defs>
</svg>
