<svg width="48" height="48" viewBox="0 0 48 48" fill="none" xmlns="http://www.w3.org/2000/svg">
<g clip-path="url(#clip0_259_583)">
<path d="M24 6C24.264 6 24.526 6 24.786 6C22.2167 8.38742 20.5652 11.5997 20.1186 15.0784C19.672 18.5572 20.4585 22.0825 22.3415 25.0415C24.2244 28.0005 27.0847 30.2061 30.4252 31.2749C33.7657 32.3438 37.3751 32.2083 40.626 30.892C39.3755 33.901 37.3316 36.5141 34.7124 38.4525C32.0932 40.391 28.9969 41.5821 25.7538 41.8988C22.5107 42.2155 19.2425 41.6459 16.2978 40.2508C13.353 38.8557 10.8422 36.6874 9.03317 33.9772C7.22412 31.267 6.18469 28.1166 6.02576 24.8619C5.86683 21.6073 6.59435 18.3706 8.13073 15.497C9.66711 12.6235 11.9547 10.2208 14.7495 8.54547C17.5443 6.87009 20.7415 5.98479 24 5.984V6Z" stroke="black" stroke-width="2" stroke-linecap="round" stroke-linejoin="round"/>
</g>
<defs>
<clipPath id="clip0_259_583">
<rect width="48" height="48" fill="white"/>
</clipPath>
</defs>
</svg>
